<svg xmlns="http://www.w3.org/2000/svg" xmlns:xlink="http://www.w3.org/1999/xlink" id="Capa_1" x="0" y="0" version="1.1" viewBox="0 0 58 58" xml:space="preserve" style="enable-background:new 0 0 58 58"><path style="fill:#afb6bb" d="M39.774,53.5H18.226c-0.224,0-0.311-0.307-0.124-0.437l1.805-1.273c1.947-1.373,2.868-3.891,2.3-6.29	v0h13.588l0,0.002c-0.568,2.4,0.354,4.917,2.302,6.29l1.803,1.271C40.085,53.194,39.997,53.5,39.774,53.5z"/><path style="fill:#e7eced" d="M54.502,45.5H3.498C1.566,45.5,0,43.934,0,42.002V4.998C0,3.066,1.566,1.5,3.498,1.5h51.003	C56.434,1.5,58,3.066,58,4.998v37.003C58,43.934,56.434,45.5,54.502,45.5z"/><path style="fill:#38454f" d="M58,36.5H0V4.998C0,3.066,1.566,1.5,3.498,1.5h51.003C56.434,1.5,58,3.066,58,4.998V36.5z"/><path style="fill:#e7eced" d="M40.5,56.5h-23c-0.825,0-1.5-0.675-1.5-1.5l0,0c0-0.825,0.675-1.5,1.5-1.5h23	c0.825,0,1.5,0.675,1.5,1.5l0,0C42,55.825,41.325,56.5,40.5,56.5z"/></svg>